<svg width="56" height="56" viewBox="0 0 56 56" fill="none" xmlns="http://www.w3.org/2000/svg">
<g clip-path="url(#clip0_3023_25960)">
<mask id="mask0_3023_25960" style="mask-type:luminance" maskUnits="userSpaceOnUse" x="0" y="0" width="56" height="56">
<path d="M0 3.8147e-06H56V56H0V3.8147e-06Z" fill="white"/>
</mask>
<g mask="url(#mask0_3023_25960)">
<path d="M49.0871 32.7311V26.2428H6.91211V50.8447C6.91211 51.7769 7.28213 52.671 7.94188 53.3299C8.60086 53.989 9.49456 54.3594 10.4268 54.3594H27.9996" stroke="rgb(66, 184, 131)" stroke-width="3.5" stroke-miterlimit="10" stroke-linecap="round" stroke-linejoin="round"/>
<path d="M19.2129 54.3594H54.3587V33.2719H19.2129V54.3594Z" stroke="rgb(66, 184, 131)" stroke-width="3.5" stroke-miterlimit="10" stroke-linecap="round" stroke-linejoin="round"/>
<path d="M26.2441 40.2989V47.3281" stroke="rgb(66, 184, 131)" stroke-width="3.5" stroke-miterlimit="10" stroke-linecap="round" stroke-linejoin="round"/>
<path d="M47.3301 40.2989V47.3281" stroke="rgb(66, 184, 131)" stroke-width="3.5" stroke-miterlimit="10" stroke-linecap="round" stroke-linejoin="round"/>
<path d="M36.786 40.2989C38.726 40.2989 40.3006 41.8736 40.3006 43.8135C40.3006 45.7532 38.726 47.3281 36.786 47.3281C34.8459 47.3281 33.2715 45.7532 33.2715 43.8135C33.2715 41.8736 34.8459 40.2989 36.786 40.2989Z" stroke="rgb(66, 184, 131)" stroke-width="3.5" stroke-miterlimit="10" stroke-linecap="round" stroke-linejoin="round"/>
<path d="M54.3594 22.7275C54.3594 23.6596 53.9895 24.5537 53.3296 25.2128C52.6706 25.8718 51.777 26.2422 50.8448 26.2422H5.15517C4.22297 26.2422 3.32938 25.8718 2.67039 25.2128C2.01053 24.5537 1.64062 23.6596 1.64062 22.7275V20.9703C1.64062 20.0381 2.01053 19.1442 2.67039 18.4851C3.32938 17.826 4.22297 17.4557 5.15517 17.4557H50.8448C51.777 17.4557 52.6706 17.826 53.3296 18.4851C53.9895 19.1442 54.3594 20.0381 54.3594 20.9703V22.7275Z" stroke="rgb(66, 184, 131)" stroke-width="3.5" stroke-miterlimit="10" stroke-linecap="round" stroke-linejoin="round"/>
<path d="M27.9992 17.4531H20.0914C15.7236 17.4531 12.1836 13.9128 12.1836 9.54531C12.1836 5.17808 15.7236 1.6375 20.0914 1.6375C24.4592 1.6375 27.9992 5.17808 27.9992 9.54531V17.4531Z" stroke="rgb(66, 184, 131)" stroke-width="3.5" stroke-miterlimit="10" stroke-linecap="round" stroke-linejoin="round"/>
<path d="M28 17.4531H35.9078C38.0052 17.4531 40.0164 16.62 41.4995 15.137C42.9826 13.6541 43.8156 11.6426 43.8156 9.54531C43.8156 5.17808 40.2756 1.6375 35.9078 1.6375C31.54 1.6375 28 5.17808 28 9.54531V17.4531Z" stroke="rgb(66, 184, 131)" stroke-width="3.5" stroke-miterlimit="10" stroke-linecap="round" stroke-linejoin="round"/>
<path d="M28 17.4577V33.2734" stroke="rgb(66, 184, 131)" stroke-width="3.5" stroke-miterlimit="10" stroke-linecap="round" stroke-linejoin="round"/>
</g>
</g>
<defs>
<clipPath id="clip0_3023_25960">
<rect width="56" height="56" fill="white"/>
</clipPath>
</defs>
</svg>
